<svg width="350" height="350" viewBox="0 0 350 350" fill="none" xmlns="http://www.w3.org/2000/svg">
<path d="M46.0215 350H23.625V347.345L35.3086 332.047L46.0215 350ZM350 350H226.806L194.073 250.459H145.812L113.08 350H87.4355L61.7246 308.591L105.668 250.459H64.5195L25.4023 303.236H23.625V250.459H0V240.771H49.5332C58.9734 240.77 67.1014 239.177 73.917 235.99C80.7327 232.803 85.982 228.426 89.665 222.859C93.3904 217.293 95.2539 210.94 95.2539 203.801C95.2539 197.639 93.8988 192.285 91.1895 187.738C88.4801 183.149 84.8396 179.558 80.2676 176.966C75.6956 174.331 70.6153 172.908 65.0273 172.695V171.421C70.065 170.401 74.4677 168.573 78.2354 165.938C82.0029 163.261 84.9237 159.947 86.998 155.995C89.1147 152.043 90.1738 147.667 90.1738 142.865C90.1738 136.236 88.4381 130.478 84.9668 125.591C81.5378 120.704 76.4363 116.922 69.6631 114.245C62.9321 111.568 54.6131 110.23 44.707 110.229H0V100.541H22.1006L29.6152 75.5547H72.499L80.0137 100.541H118.113L85.0527 0H182.597L122.206 80.9092V100.541H228.38V71.9854H167.165L220.895 0H350V350ZM170.451 286.409L183.41 329.497H156.477L169.436 286.409H170.451ZM98.8223 110.229V193.857C98.8223 203.801 101.151 212.405 105.808 219.672C110.507 226.896 117.068 232.485 125.492 236.437C133.917 240.346 143.739 242.3 154.957 242.3C166.091 242.3 175.87 240.346 184.294 236.437C192.718 232.485 199.28 226.896 203.979 219.672C208.721 212.406 211.092 203.801 211.092 193.857V110.229H175.785V190.798C175.785 194.835 174.896 198.447 173.118 201.634C171.34 204.778 168.885 207.243 165.752 209.027C162.619 210.812 159.021 211.705 154.957 211.705C150.935 211.705 147.337 210.812 144.162 209.027C141.029 207.243 138.574 204.778 136.796 201.634C135.018 198.447 134.129 194.835 134.129 190.798V110.229H98.8223ZM40.6426 184.934C44.241 184.934 47.3106 185.486 49.8506 186.591C52.4329 187.696 54.4223 189.311 55.8193 191.436C57.2163 193.56 57.915 196.152 57.915 199.212C57.915 203.589 56.433 206.903 53.4697 209.155C50.5064 211.365 46.0614 212.47 40.1348 212.47H23.625V184.934H40.6426ZM38.6104 138.021C43.0131 138.021 46.6545 139.104 49.5332 141.271C52.4117 143.396 53.8506 146.477 53.8506 150.514C53.8506 153.191 53.1739 155.464 51.8193 157.334C50.507 159.161 48.6646 160.564 46.2939 161.541C43.9233 162.518 41.1927 163.007 38.1025 163.007H23.625V138.021H38.6104ZM0 51.8838V0H17.0615L0 51.8838ZM51.5645 5.9502L64.5234 49.0381H37.5898L50.5488 5.9502H51.5645Z" fill="white"/>
</svg>
