<svg width="420" height="420" viewBox="0 0 420 420" fill="none" xmlns="http://www.w3.org/2000/svg">
<path d="M0 0H420V420H0V0Z" fill="#ffffff"/>
<mask id="mask0_7_1255" style="mask-type:alpha" maskUnits="userSpaceOnUse" x="0" y="0" width="420" height="420">
<path d="M0 0H420V420H0V0Z" fill="white"/>
</mask>
<g mask="url(#mask0_7_1255)">
<path d="M50.6 272V141.2H129.6V160.8H73.8V197.8H121.4V217.4H73.8V272H50.6ZM203.2 274.4C192.133 274.4 182.067 271.8 173 266.6C164.067 261.4 156.933 253.8 151.6 243.8C146.4 233.667 143.8 221.4 143.8 207C143.8 196.333 145.333 186.8 148.4 178.4C151.467 169.867 155.733 162.667 161.2 156.8C166.8 150.933 173.2 146.467 180.4 143.4C187.6 140.333 195.333 138.8 203.6 138.8C211.867 138.8 219.2 140.467 225.6 143.8C232 147 237.267 150.867 241.4 155.4L229 169.6C225.667 166.133 221.933 163.533 217.8 161.8C213.8 159.933 209.267 159 204.2 159C197.267 159 191 160.933 185.4 164.8C179.933 168.667 175.6 174.133 172.4 181.2C169.2 188.267 167.6 196.667 167.6 206.4C167.6 216.4 169.133 225 172.2 232.2C175.267 239.267 179.6 244.733 185.2 248.6C190.8 252.333 197.333 254.2 204.8 254.2C210.4 254.2 215.4 253.067 219.8 250.8C224.2 248.533 228.2 245.533 231.8 241.8L243.6 255.6C238.267 261.733 232.267 266.4 225.6 269.6C218.933 272.8 211.467 274.4 203.2 274.4ZM298.956 274.4C289.89 274.4 281.29 272.733 273.156 269.4C265.156 266.067 258.023 261.333 251.756 255.2L264.356 240C269.023 244.533 274.423 248.067 280.556 250.6C286.823 253 293.09 254.2 299.356 254.2C306.823 254.2 312.49 252.667 316.356 249.6C320.223 246.533 322.156 242.467 322.156 237.4C322.156 233.8 321.29 230.933 319.556 228.8C317.823 226.533 315.423 224.6 312.356 223C309.423 221.4 305.956 219.8 301.956 218.2L283.956 210.4C279.69 208.533 275.49 206.133 271.356 203.2C267.356 200.133 264.023 196.4 261.356 192C258.823 187.467 257.556 182 257.556 175.6C257.556 168.667 259.423 162.467 263.156 157C267.023 151.4 272.223 147 278.756 143.8C285.423 140.467 293.023 138.8 301.556 138.8C309.423 138.8 316.823 140.267 323.756 143.2C330.823 146 336.823 149.867 341.756 154.8L329.556 170C325.29 166.533 320.823 163.867 316.156 162C311.49 160 306.623 159 301.556 159C295.423 159 290.423 160.4 286.556 163.2C282.823 165.867 280.956 169.6 280.956 174.4C280.956 177.733 281.89 180.533 283.756 182.8C285.756 184.933 288.356 186.8 291.556 188.4C294.89 189.867 298.29 191.333 301.756 192.8L319.556 200.2C324.756 202.467 329.356 205.133 333.356 208.2C337.356 211.267 340.423 215 342.556 219.4C344.823 223.8 345.956 229.2 345.956 235.6C345.956 242.667 344.09 249.133 340.356 255C336.623 260.867 331.223 265.6 324.156 269.2C317.223 272.667 308.823 274.4 298.956 274.4ZM404.816 274.4C395.749 274.4 387.149 272.733 379.016 269.4C371.016 266.067 363.882 261.333 357.616 255.2L370.216 240C374.882 244.533 380.282 248.067 386.416 250.6C392.682 253 398.949 254.2 405.216 254.2C412.682 254.2 418.349 252.667 422.216 249.6C426.082 246.533 428.016 242.467 428.016 237.4C428.016 233.8 427.149 230.933 425.416 228.8C423.682 226.533 421.282 224.6 418.216 223C415.282 221.4 411.816 219.8 407.816 218.2L389.816 210.4C385.549 208.533 381.349 206.133 377.216 203.2C373.216 200.133 369.882 196.4 367.216 192C364.682 187.467 363.416 182 363.416 175.6C363.416 168.667 365.282 162.467 369.016 157C372.882 151.4 378.082 147 384.616 143.8C391.282 140.467 398.882 138.8 407.416 138.8C415.282 138.8 422.682 140.267 429.616 143.2C436.682 146 442.682 149.867 447.616 154.8L435.416 170C431.149 166.533 426.682 163.867 422.016 162C417.349 160 412.482 159 407.416 159C401.282 159 396.282 160.4 392.416 163.2C388.682 165.867 386.816 169.6 386.816 174.4C386.816 177.733 387.749 180.533 389.616 182.8C391.616 184.933 394.216 186.8 397.416 188.4C400.749 189.867 404.149 191.333 407.616 192.8L425.416 200.2C430.616 202.467 435.216 205.133 439.216 208.2C443.216 211.267 446.282 215 448.416 219.4C450.682 223.8 451.816 229.2 451.816 235.6C451.816 242.667 449.949 249.133 446.216 255C442.482 260.867 437.082 265.6 430.016 269.2C423.082 272.667 414.682 274.4 404.816 274.4Z" fill="black"/>
</g>
</svg>
